# xmcd
#
# Track frame offsets:
#	150
#	13118
#	33323
#	50505
#	67760
#	88985
#	108837
#	142893
#	163248
#	179670
#	197595
#	212630
#	230678
#	245678
#	261663
#	278518
#	293975
#	308580
#
# Disc length: 4361 seconds
#
# Revision: 0
# Processed by: cddbd v1.5.1PL0 Copyright (c) Steve Scherf et al.
# Submitted via: dBpowerAMP V4.0
#
DISCID=0a110712
DTITLE=Shania Twain - Up (Green)
DYEAR=1900
DGENRE=Country
TTITLE0=Up
TTITLE1=I'm Gonna Getcha Good
TTITLE2=Shece's Not Just A Pretty Fa
TTITLE3=Juanita
TTITLE4=Forever And Always
TTITLE5=Ain't No Particular Way
TTITLE6=It Only Hurts When I Breath
TTITLE7=Nah
TTITLE8=That Good
TTITLE9=C'est Le Vie
TTITLE10=I'm Jealous
TTITLE11=Ka-Ching
TTITLE12=Thank You Baby
TTITLE13=Waiter Bring Me Water
TTITLE14=What A Way To Wanna  Be
TTITLE15=I Ain't Going Down
TTITLE16=I'm Not In The Mood
TTITLE17=In My Car
EXTD=
EXTT0=
EXTT1=
EXTT2=
EXTT3=
EXTT4=
EXTT5=
EXTT6=
EXTT7=
EXTT8=
EXTT9=
EXTT10=
EXTT11=
EXTT12=
EXTT13=
EXTT14=
EXTT15=
EXTT16=
EXTT17=
PLAYORDER=
